<mxfile host="Electron" agent="Mozilla/5.0 (Macintosh; Intel Mac OS X 10_15_7) AppleWebKit/537.36 (KHTML, like Gecko) draw.io/24.7.5 Chrome/126.0.6478.183 Electron/31.3.0 Safari/537.36" version="24.7.5">
  <diagram name="Page-1" id="DouYV13dVgsZ0XXw8R14">
    <mxGraphModel dx="418" dy="797" grid="1" gridSize="10" guides="1" tooltips="1" connect="1" arrows="1" fold="1" page="1" pageScale="1" pageWidth="827" pageHeight="1169" math="0" shadow="0">
      <root>
        <mxCell id="0" />
        <mxCell id="1" parent="0" />
        <mxCell id="hNtenuK7WuW0bpYXtM4P-1" value="Player" style="swimlane;fontStyle=1;align=center;verticalAlign=top;childLayout=stackLayout;horizontal=1;startSize=26;horizontalStack=0;resizeParent=1;resizeParentMax=0;resizeLast=0;collapsible=1;marginBottom=0;whiteSpace=wrap;html=1;" vertex="1" parent="1">
          <mxGeometry x="20" y="40" width="200" height="280" as="geometry" />
        </mxCell>
        <mxCell id="hNtenuK7WuW0bpYXtM4P-2" value="- Difficulty difficulty: enum&lt;div&gt;- Skin skin: enum&lt;br&gt;&lt;div&gt;- name: String&lt;/div&gt;&lt;div&gt;- stamina: double&lt;/div&gt;&lt;div&gt;- currency: int&lt;/div&gt;&lt;div&gt;- speed: int&lt;/div&gt;&lt;/div&gt;&lt;div&gt;- skill: enum&lt;/div&gt;" style="text;strokeColor=none;fillColor=none;align=left;verticalAlign=top;spacingLeft=4;spacingRight=4;overflow=hidden;rotatable=0;points=[[0,0.5],[1,0.5]];portConstraint=eastwest;whiteSpace=wrap;html=1;" vertex="1" parent="hNtenuK7WuW0bpYXtM4P-1">
          <mxGeometry y="26" width="200" height="104" as="geometry" />
        </mxCell>
        <mxCell id="hNtenuK7WuW0bpYXtM4P-3" value="" style="line;strokeWidth=1;fillColor=none;align=left;verticalAlign=middle;spacingTop=-1;spacingLeft=3;spacingRight=3;rotatable=0;labelPosition=right;points=[];portConstraint=eastwest;strokeColor=inherit;" vertex="1" parent="hNtenuK7WuW0bpYXtM4P-1">
          <mxGeometry y="130" width="200" height="8" as="geometry" />
        </mxCell>
        <mxCell id="hNtenuK7WuW0bpYXtM4P-4" value="+ moving(KeyBind): void&lt;div&gt;+ jumping(KeyBind): void&lt;/div&gt;&lt;div&gt;&lt;span style=&quot;background-color: initial;&quot;&gt;+ walk(KeyBind): void&lt;/span&gt;&lt;/div&gt;&lt;div&gt;&lt;span style=&quot;background-color: initial;&quot;&gt;+ sprint(KeyBind): void&lt;/span&gt;&lt;/div&gt;&lt;div&gt;&lt;span style=&quot;background-color: initial;&quot;&gt;+ grab(KeyBind): void&lt;/span&gt;&lt;/div&gt;&lt;div&gt;&lt;span style=&quot;background-color: initial;&quot;&gt;+ open(KeyBind): void&lt;/span&gt;&lt;/div&gt;&lt;div&gt;+ update(): void&lt;/div&gt;&lt;div&gt;+ pressPauseButton(KeyBind): void&lt;/div&gt;&lt;div&gt;+ performAbility(): void&lt;/div&gt;" style="text;strokeColor=none;fillColor=none;align=left;verticalAlign=top;spacingLeft=4;spacingRight=4;overflow=hidden;rotatable=0;points=[[0,0.5],[1,0.5]];portConstraint=eastwest;whiteSpace=wrap;html=1;" vertex="1" parent="hNtenuK7WuW0bpYXtM4P-1">
          <mxGeometry y="138" width="200" height="142" as="geometry" />
        </mxCell>
        <mxCell id="hNtenuK7WuW0bpYXtM4P-8" value="" style="edgeStyle=orthogonalEdgeStyle;rounded=0;orthogonalLoop=1;jettySize=auto;html=1;" edge="1" parent="1">
          <mxGeometry relative="1" as="geometry">
            <mxPoint x="344" y="200" as="sourcePoint" />
            <mxPoint x="344" y="200" as="targetPoint" />
          </mxGeometry>
        </mxCell>
        <mxCell id="hNtenuK7WuW0bpYXtM4P-11" value="Home Menu" style="swimlane;fontStyle=1;align=center;verticalAlign=top;childLayout=stackLayout;horizontal=1;startSize=26;horizontalStack=0;resizeParent=1;resizeParentMax=0;resizeLast=0;collapsible=1;marginBottom=0;whiteSpace=wrap;html=1;" vertex="1" parent="1">
          <mxGeometry x="480" y="20" width="160" height="130" as="geometry" />
        </mxCell>
        <mxCell id="hNtenuK7WuW0bpYXtM4P-12" value="+ checkPoint: string" style="text;strokeColor=none;fillColor=none;align=left;verticalAlign=top;spacingLeft=4;spacingRight=4;overflow=hidden;rotatable=0;points=[[0,0.5],[1,0.5]];portConstraint=eastwest;whiteSpace=wrap;html=1;" vertex="1" parent="hNtenuK7WuW0bpYXtM4P-11">
          <mxGeometry y="26" width="160" height="26" as="geometry" />
        </mxCell>
        <mxCell id="hNtenuK7WuW0bpYXtM4P-13" value="" style="line;strokeWidth=1;fillColor=none;align=left;verticalAlign=middle;spacingTop=-1;spacingLeft=3;spacingRight=3;rotatable=0;labelPosition=right;points=[];portConstraint=eastwest;strokeColor=inherit;" vertex="1" parent="hNtenuK7WuW0bpYXtM4P-11">
          <mxGeometry y="52" width="160" height="8" as="geometry" />
        </mxCell>
        <mxCell id="hNtenuK7WuW0bpYXtM4P-14" value="&lt;div&gt;+ newGame: void&lt;/div&gt;&lt;div&gt;+ loadGame:&lt;/div&gt;&lt;div&gt;+ gameSetting: void&lt;/div&gt;&lt;div&gt;+ quit game&lt;/div&gt;" style="text;strokeColor=none;fillColor=none;align=left;verticalAlign=top;spacingLeft=4;spacingRight=4;overflow=hidden;rotatable=0;points=[[0,0.5],[1,0.5]];portConstraint=eastwest;whiteSpace=wrap;html=1;" vertex="1" parent="hNtenuK7WuW0bpYXtM4P-11">
          <mxGeometry y="60" width="160" height="70" as="geometry" />
        </mxCell>
        <mxCell id="hNtenuK7WuW0bpYXtM4P-15" value="NewGame&lt;div&gt;&lt;br&gt;&lt;/div&gt;" style="swimlane;fontStyle=1;align=center;verticalAlign=top;childLayout=stackLayout;horizontal=1;startSize=26;horizontalStack=0;resizeParent=1;resizeParentMax=0;resizeLast=0;collapsible=1;marginBottom=0;whiteSpace=wrap;html=1;" vertex="1" parent="1">
          <mxGeometry x="350" y="170" width="160" height="150" as="geometry" />
        </mxCell>
        <mxCell id="hNtenuK7WuW0bpYXtM4P-16" value="+ checkPoint:&lt;div&gt;+ player: Player&lt;br&gt;&lt;div&gt;+ Difficulty difficulty: Enum&lt;/div&gt;&lt;/div&gt;" style="text;strokeColor=none;fillColor=none;align=left;verticalAlign=top;spacingLeft=4;spacingRight=4;overflow=hidden;rotatable=0;points=[[0,0.5],[1,0.5]];portConstraint=eastwest;whiteSpace=wrap;html=1;" vertex="1" parent="hNtenuK7WuW0bpYXtM4P-15">
          <mxGeometry y="26" width="160" height="74" as="geometry" />
        </mxCell>
        <mxCell id="hNtenuK7WuW0bpYXtM4P-17" value="" style="line;strokeWidth=1;fillColor=none;align=left;verticalAlign=middle;spacingTop=-1;spacingLeft=3;spacingRight=3;rotatable=0;labelPosition=right;points=[];portConstraint=eastwest;strokeColor=inherit;" vertex="1" parent="hNtenuK7WuW0bpYXtM4P-15">
          <mxGeometry y="100" width="160" height="8" as="geometry" />
        </mxCell>
        <mxCell id="hNtenuK7WuW0bpYXtM4P-18" value="+ launchGame: void" style="text;strokeColor=none;fillColor=none;align=left;verticalAlign=top;spacingLeft=4;spacingRight=4;overflow=hidden;rotatable=0;points=[[0,0.5],[1,0.5]];portConstraint=eastwest;whiteSpace=wrap;html=1;" vertex="1" parent="hNtenuK7WuW0bpYXtM4P-15">
          <mxGeometry y="108" width="160" height="42" as="geometry" />
        </mxCell>
        <mxCell id="hNtenuK7WuW0bpYXtM4P-20" value="Difficulty" style="swimlane;fontStyle=1;align=center;verticalAlign=top;childLayout=stackLayout;horizontal=1;startSize=26;horizontalStack=0;resizeParent=1;resizeParentMax=0;resizeLast=0;collapsible=1;marginBottom=0;whiteSpace=wrap;html=1;" vertex="1" parent="1">
          <mxGeometry x="300" y="20" width="100" height="108" as="geometry" />
        </mxCell>
        <mxCell id="hNtenuK7WuW0bpYXtM4P-21" value="+ EASY&lt;div&gt;+ MEDIUM&lt;/div&gt;&lt;div&gt;+ HARD&lt;/div&gt;&lt;div&gt;+ HARDCORE&lt;/div&gt;" style="text;strokeColor=none;fillColor=none;align=left;verticalAlign=top;spacingLeft=4;spacingRight=4;overflow=hidden;rotatable=0;points=[[0,0.5],[1,0.5]];portConstraint=eastwest;whiteSpace=wrap;html=1;" vertex="1" parent="hNtenuK7WuW0bpYXtM4P-20">
          <mxGeometry y="26" width="100" height="74" as="geometry" />
        </mxCell>
        <mxCell id="hNtenuK7WuW0bpYXtM4P-22" value="" style="line;strokeWidth=1;fillColor=none;align=left;verticalAlign=middle;spacingTop=-1;spacingLeft=3;spacingRight=3;rotatable=0;labelPosition=right;points=[];portConstraint=eastwest;strokeColor=inherit;" vertex="1" parent="hNtenuK7WuW0bpYXtM4P-20">
          <mxGeometry y="100" width="100" height="8" as="geometry" />
        </mxCell>
        <mxCell id="hNtenuK7WuW0bpYXtM4P-33" value="1" style="endArrow=open;html=1;endSize=12;startArrow=diamondThin;startSize=14;startFill=1;edgeStyle=orthogonalEdgeStyle;align=left;verticalAlign=bottom;rounded=0;entryX=0;entryY=0.5;entryDx=0;entryDy=0;" edge="1" parent="1" target="hNtenuK7WuW0bpYXtM4P-16">
          <mxGeometry x="-1" y="3" relative="1" as="geometry">
            <mxPoint x="330" y="130" as="sourcePoint" />
            <mxPoint x="250" y="260" as="targetPoint" />
          </mxGeometry>
        </mxCell>
        <mxCell id="hNtenuK7WuW0bpYXtM4P-34" value="GameScenario" style="swimlane;fontStyle=1;align=center;verticalAlign=top;childLayout=stackLayout;horizontal=1;startSize=26;horizontalStack=0;resizeParent=1;resizeParentMax=0;resizeLast=0;collapsible=1;marginBottom=0;whiteSpace=wrap;html=1;" vertex="1" parent="1">
          <mxGeometry x="360" y="410" width="160" height="198" as="geometry" />
        </mxCell>
        <mxCell id="hNtenuK7WuW0bpYXtM4P-35" value="+ loadPoint: string&lt;div&gt;+ player: Player&lt;/div&gt;&lt;div&gt;+ environment: Floor&lt;/div&gt;" style="text;strokeColor=none;fillColor=none;align=left;verticalAlign=top;spacingLeft=4;spacingRight=4;overflow=hidden;rotatable=0;points=[[0,0.5],[1,0.5]];portConstraint=eastwest;whiteSpace=wrap;html=1;" vertex="1" parent="hNtenuK7WuW0bpYXtM4P-34">
          <mxGeometry y="26" width="160" height="84" as="geometry" />
        </mxCell>
        <mxCell id="hNtenuK7WuW0bpYXtM4P-36" value="" style="line;strokeWidth=1;fillColor=none;align=left;verticalAlign=middle;spacingTop=-1;spacingLeft=3;spacingRight=3;rotatable=0;labelPosition=right;points=[];portConstraint=eastwest;strokeColor=inherit;" vertex="1" parent="hNtenuK7WuW0bpYXtM4P-34">
          <mxGeometry y="110" width="160" height="8" as="geometry" />
        </mxCell>
        <mxCell id="hNtenuK7WuW0bpYXtM4P-37" value="+ displayTime: Time&lt;div&gt;+ displayStamina: void&lt;/div&gt;&lt;div&gt;+ displayCurrency&lt;/div&gt;&lt;div&gt;+ controlPlayer: void&lt;/div&gt;&lt;div&gt;+ pressPauseButton: void&lt;/div&gt;" style="text;strokeColor=none;fillColor=none;align=left;verticalAlign=top;spacingLeft=4;spacingRight=4;overflow=hidden;rotatable=0;points=[[0,0.5],[1,0.5]];portConstraint=eastwest;whiteSpace=wrap;html=1;" vertex="1" parent="hNtenuK7WuW0bpYXtM4P-34">
          <mxGeometry y="118" width="160" height="80" as="geometry" />
        </mxCell>
        <mxCell id="hNtenuK7WuW0bpYXtM4P-38" value="PauseMenu" style="swimlane;fontStyle=1;align=center;verticalAlign=top;childLayout=stackLayout;horizontal=1;startSize=26;horizontalStack=0;resizeParent=1;resizeParentMax=0;resizeLast=0;collapsible=1;marginBottom=0;whiteSpace=wrap;html=1;" vertex="1" parent="1">
          <mxGeometry x="110" y="410" width="160" height="180" as="geometry" />
        </mxCell>
        <mxCell id="hNtenuK7WuW0bpYXtM4P-39" value="+ field: type" style="text;strokeColor=none;fillColor=none;align=left;verticalAlign=top;spacingLeft=4;spacingRight=4;overflow=hidden;rotatable=0;points=[[0,0.5],[1,0.5]];portConstraint=eastwest;whiteSpace=wrap;html=1;" vertex="1" parent="hNtenuK7WuW0bpYXtM4P-38">
          <mxGeometry y="26" width="160" height="26" as="geometry" />
        </mxCell>
        <mxCell id="hNtenuK7WuW0bpYXtM4P-40" value="" style="line;strokeWidth=1;fillColor=none;align=left;verticalAlign=middle;spacingTop=-1;spacingLeft=3;spacingRight=3;rotatable=0;labelPosition=right;points=[];portConstraint=eastwest;strokeColor=inherit;" vertex="1" parent="hNtenuK7WuW0bpYXtM4P-38">
          <mxGeometry y="52" width="160" height="8" as="geometry" />
        </mxCell>
        <mxCell id="hNtenuK7WuW0bpYXtM4P-41" value="+ resumeGame: void&lt;div&gt;+ saveGame: void&lt;/div&gt;&lt;div&gt;+ loadGame: CheckPoint&lt;/div&gt;&lt;div&gt;+ gameSetting: void&lt;/div&gt;&lt;div&gt;+ exitToMenu: HomeMenu&lt;/div&gt;" style="text;strokeColor=none;fillColor=none;align=left;verticalAlign=top;spacingLeft=4;spacingRight=4;overflow=hidden;rotatable=0;points=[[0,0.5],[1,0.5]];portConstraint=eastwest;whiteSpace=wrap;html=1;" vertex="1" parent="hNtenuK7WuW0bpYXtM4P-38">
          <mxGeometry y="60" width="160" height="120" as="geometry" />
        </mxCell>
      </root>
    </mxGraphModel>
  </diagram>
</mxfile>
